<svg xmlns:xlink="http://www.w3.org/1999/xlink" xmlns="http://www.w3.org/2000/svg" viewBox="0 0 24 24" fill="none" width="32" height="32" size="32" color="currentColor"><path fill-rule="evenodd" clip-rule="evenodd" d="M9.946.487a2.61 2.61 0 00-3.024 2.117l-.28 1.584-2.37 13.45-.28 1.584a2.609 2.609 0 002.117 3.023l8.31 1.465a2.61 2.61 0 003.022-2.117l2.65-15.033.28-1.585a2.609 2.609 0 00-2.117-3.023L9.946.487zm9.161 5.9l.28-1.585a1.609 1.609 0 00-1.306-1.864L9.77 1.472a1.61 1.61 0 00-1.864 1.306l-.28 1.584 11.48 2.024zM5.257 17.81l11.479 2.024-.28 1.585a1.61 1.61 0 01-1.864 1.306l-8.31-1.465a1.61 1.61 0 01-1.305-1.864l.28-1.586zm11.652 1.04L5.43 16.825l2.025-11.48 11.48 2.025-2.025 11.48zm-6.314 2.25a.704.704 0 10.242-1.386.704.704 0 00-.242 1.386z" fill="#4A4A4A"></path></svg>