<svg xmlns:xlink="http://www.w3.org/1999/xlink" xmlns="http://www.w3.org/2000/svg" viewBox="0 0 24 24" fill="none" width="32" height="32" size="32" color="currentColor"><path fill-rule="evenodd" clip-rule="evenodd" d="M8.034 9.153l.437-.077v7.226a3.5 3.5 0 101 2.45V8.9l9.5-1.676v7.578a3.5 3.5 0 101 2.45V6.826a2 2 0 00.765-1.944l-.261-1.477a2 2 0 00-2.318-1.622L7.08 3.737a2 2 0 00-1.622 2.317l.26 1.476a2 2 0 002.317 1.623zm10.937 8.098a2.5 2.5 0 10-5 0 2.5 2.5 0 005 0zm-13-1a2.5 2.5 0 110 5 2.5 2.5 0 010-5zm13.78-11.195a1 1 0 01-.812 1.158L7.86 8.167a1 1 0 01-1.158-.811l-.26-1.477a1 1 0 01.81-1.159l11.08-1.953a1 1 0 011.158.811l.261 1.478z" fill="#4A4A4A"></path></svg>