<?xml version="1.0" encoding="utf-8"?>
<!-- Generator: Adobe Illustrator 26.3.1, SVG Export Plug-In . SVG Version: 6.00 Build 0)  -->
<svg version="1.1" id="Camada_1" xmlns="http://www.w3.org/2000/svg" xmlns:xlink="http://www.w3.org/1999/xlink" x="0px" y="0px"
	 viewBox="0 0 58 58" style="enable-background:new 0 0 58 58;" xml:space="preserve">
<style type="text/css">
	.st0{fill:#FFFFFF;}
	.st1{fill:#F28000;}
</style>
<image style="display:none;overflow:visible;enable-background:new    ;" width="58" height="58" xlink:href="91CB4D77265183B7.jpeg" >
</image>
<circle class="st0" cx="29" cy="29" r="28.8"/>
<g>
	<polygon class="st1" points="18,43.8 18,43.8 18,43.8 	"/>
	<path class="st1" d="M49.6,29.1l-0.6,0.4c-0.8-1-1.3-1.8-1.3-2.4c-0.1-0.8,0.4-1.8,0.8-2.8c0.7-1.4,1.3-2.9,0.8-4.2
		c-0.6-1.3-2.1-1.8-3.6-2.3c-1.1-0.3-2.1-0.7-2.6-1.3c-0.5-0.5-0.7-1.5-0.9-2.7c-0.3-1.5-0.6-3.2-1.9-3.9c-1.2-0.7-2.8-0.2-4.2,0.3
		c-1.1,0.3-2.2,0.7-2.9,0.5c-0.7-0.2-1.5-0.8-2.5-1.7c-1.1-1-2.3-2.1-3.7-2c-1.4,0.1-2.4,1.5-3.3,2.7l-0.1,0.1c-0.8,1-1.3,1.8-1.9,2
		c-0.7,0.3-1.7,0.2-2.9,0c-1.6-0.2-3.2-0.4-4.3,0.6c-1,0.9-1.1,2.5-1.1,4.1c0,1.1,0,2.3-0.4,3c-0.3,0.6-1.1,1-2.2,1.7
		c-1.4,0.8-2.9,1.6-3.2,3.1c-0.3,1.4,0.7,2.8,1.6,4.1c0.8,1,1.3,1.8,1.4,2.5c0.1,0.8-0.4,1.8-0.9,2.8c-0.7,1.4-1.3,2.9-0.7,4.2
		c0.6,1.3,2.1,1.8,3.6,2.3c1.2,0.4,2.2,0.7,2.6,1.3c0.5,0.5,0.7,1.5,0.9,2.7c0.3,1.6,0.6,3.2,1.9,3.9c0.2,0.1,0.4,0.2,0.7,0.3
		c1,0.2,2.2-0.2,3.4-0.5l0.1,0c0.9-0.3,1.8-0.6,2.5-0.6c0.2,0,0.3,0,0.4,0c0.8,0.2,1.6,0.9,2.5,1.7c1.1,1,2.3,2.1,3.7,2
		c1.4-0.1,2.4-1.5,3.3-2.8c0.8-1.1,1.4-1.8,2-2.1c0.7-0.3,1.8-0.2,2.8-0.1c1.6,0.2,3.3,0.4,4.3-0.6c1.1-1,1.1-2.6,1.1-4.1
		c0-1.1,0-2.3,0.4-2.9c0.3-0.6,1.1-1.1,2.2-1.7c1.4-0.8,2.9-1.6,3.2-3.1c0.3-1.5-0.6-2.8-1.6-4.1l0,0L49.6,29.1L49.6,29.1z
		 M49.3,33.4L49.3,33.4c-0.2,0.8-1.2,1.5-2.5,2.2c-1.2,0.7-2.2,1.3-2.7,2.2c-0.6,1-0.6,2.3-0.6,3.6c0,1.6,0,2.6-0.6,3.2
		c-0.6,0.5-1.7,0.4-3.3,0.3c-1.3-0.1-2.6-0.3-3.6,0.2c-1,0.4-1.8,1.5-2.5,2.5c-0.9,1.2-1.6,2.2-2.4,2.3c0,0-0.1,0-0.1,0
		c-0.7,0-1.5-0.7-2.6-1.7c-1-0.9-2-1.8-3.1-2c-1.1-0.2-2.4,0.2-3.6,0.5c-1.5,0.5-2.6,0.8-3.2,0.4c-0.7-0.4-1-1.5-1.3-3l0-0.1
		c-0.3-1.3-0.5-2.5-1.2-3.3c-0.7-0.8-2-1.2-3.2-1.6c-1.5-0.5-2.6-0.9-2.9-1.6c-0.3-0.7,0.1-1.7,0.7-3.1c0.6-1.2,1.1-2.4,1-3.6
		c-0.1-1.1-0.9-2.1-1.6-3.1c-0.9-1.3-1.6-2.2-1.4-3c0.2-0.8,1.1-1.4,2.5-2.2c1.1-0.6,2.2-1.3,2.8-2.2c0.6-1,0.6-2.3,0.6-3.5
		c0-1.6,0-2.7,0.6-3.2c0.6-0.5,1.7-0.4,3.2-0.3c1.3,0.1,2.6,0.3,3.6-0.2c1-0.4,1.8-1.5,2.5-2.5c0.9-1.2,1.6-2.2,2.4-2.3
		c0.1,0,0.3,0,0.4,0c0.7,0.1,1.5,0.8,2.4,1.6c1,0.9,2,1.8,3.1,2c1.1,0.2,2.4-0.2,3.6-0.6c1.5-0.5,2.5-0.8,3.2-0.4
		c0.7,0.4,1,1.5,1.3,3c0.3,1.3,0.5,2.6,1.3,3.4c0.7,0.8,2,1.2,3.2,1.6c1.5,0.5,2.6,0.9,2.9,1.6c0.3,0.7-0.1,1.7-0.7,3.1
		c-0.6,1.2-1.1,2.4-1,3.6c0.1,1.1,0.9,2.1,1.6,3.1C48.9,31.7,49.5,32.6,49.3,33.4z"/>
</g>
<path class="st1" d="M26.2,42c7.2,1.6,14.3-3,15.9-10.2c1.6-7.2-3-14.3-10.2-15.9c-0.9-0.2-1.9-0.3-2.8-0.3c-6.1,0-11.7,4.3-13,10.5
	C14.4,33.3,19,40.5,26.2,42z M17.3,26.4c0.7-3.1,2.5-5.8,5.2-7.6c2.7-1.7,5.9-2.3,9.1-1.6c6.5,1.4,10.6,7.8,9.2,14.3
	c-0.7,3.1-2.5,5.8-5.2,7.6c-2,1.3-4.2,1.9-6.5,1.9c-0.9,0-1.7-0.1-2.6-0.3c-3.1-0.7-5.8-2.5-7.6-5.2C17.2,32.8,16.6,29.6,17.3,26.4z
	"/>
</svg>
